<svg width="165" height="24" viewBox="0 0 165 24" fill="none" xmlns="http://www.w3.org/2000/svg">
<path d="M18.3086 12.4595C19.162 11.4931 19.6172 10.2477 19.5849 8.968C19.5849 5.2852 16.4852 2.83398 12.4618 2.83398H0.585938V4.0297C0.595543 4.9241 0.963485 5.77866 1.60985 6.40776C2.25621 7.03686 3.1288 7.38971 4.03808 7.38966H12.1093C12.3745 7.35297 12.6447 7.37271 12.9015 7.44753C13.1583 7.52235 13.3958 7.65051 13.598 7.82337C13.8001 7.99622 13.9622 8.20973 14.0733 8.44948C14.1844 8.68924 14.2419 8.94965 14.2419 9.21313C14.2419 9.4766 14.1844 9.73701 14.0733 9.97677C13.9622 10.2165 13.8001 10.43 13.598 10.6029C13.3958 10.7757 13.1583 10.9039 12.9015 10.9787C12.6447 11.0535 12.3745 11.0733 12.1093 11.0366H4.81603V23.5916H14.6619C18.7218 23.5916 21.7972 21.0686 21.7972 17.4217C21.827 16.3373 21.5049 15.2717 20.8777 14.3795C20.2504 13.4873 19.3505 12.8148 18.3086 12.4595ZM14.3459 19.024H9.7876V15.377H14.3459C15.5614 15.377 16.4609 15.9749 16.4609 17.2065C16.4609 18.4381 15.6222 19.024 14.3459 19.024Z" fill="white"/>
<path d="M30.9752 7.48509C29.8129 7.37813 28.6408 7.51099 27.5338 7.87518C26.4267 8.23936 25.4092 8.82685 24.5462 9.60005C23.6832 10.3733 22.9938 11.3151 22.522 12.3655C22.0503 13.4158 21.8066 14.5514 21.8066 15.6997C21.8066 16.8479 22.0503 17.9835 22.522 19.0339C22.9938 20.0842 23.6832 21.0261 24.5462 21.7993C25.4092 22.5725 26.4267 23.16 27.5338 23.5241C28.6408 23.8883 29.8129 24.0212 30.9752 23.9142C32.0997 23.9428 33.2188 23.7518 34.2677 23.3522C35.3167 22.9526 36.2747 22.3523 37.0863 21.5862C37.898 20.8201 38.5471 19.9032 38.9962 18.8887C39.4453 17.8742 39.6855 16.7821 39.7028 15.6757C39.6791 14.5734 39.4343 13.4865 38.9824 12.4775C38.5304 11.4686 37.8803 10.5574 37.0693 9.79626C36.2583 9.03517 35.3025 8.43919 34.2567 8.04257C33.2108 7.64595 32.0956 7.45649 30.9752 7.48509ZM30.9752 18.9998C30.5463 19.0065 30.1208 18.9244 29.7263 18.7591C29.3317 18.5937 28.9768 18.3487 28.6846 18.0398C28.3924 17.731 28.1694 17.3652 28.03 16.9662C27.8907 16.5672 27.838 16.1439 27.8755 15.7236C27.8398 15.3042 27.8938 14.8822 28.034 14.4846C28.1742 14.0871 28.3975 13.7228 28.6895 13.4153C28.9815 13.1078 29.3357 12.8638 29.7294 12.6992C30.1231 12.5345 30.5474 12.4528 30.9752 12.4593C31.3982 12.4649 31.8156 12.5551 32.2022 12.7242C32.5887 12.8933 32.9363 13.1379 33.2239 13.4432C33.5115 13.7484 33.733 14.1079 33.8751 14.4999C34.0172 14.8919 34.0769 15.3082 34.0505 15.7236C34.0804 16.1403 34.0232 16.5586 33.8826 16.9528C33.7419 17.3469 33.5207 17.7086 33.2326 18.0155C32.9445 18.3224 32.5956 18.5681 32.2074 18.7374C31.8192 18.9067 31.3998 18.996 30.9752 18.9998Z" fill="white"/>
<path d="M49.0008 7.4851C47.863 7.42478 46.7246 7.59314 45.6552 7.97992C44.5857 8.36669 43.6076 8.96377 42.7805 9.73471C41.9534 10.5057 41.2946 11.4343 40.8445 12.464C40.3943 13.4936 40.1621 14.6027 40.1621 15.7236C40.1621 16.8444 40.3943 17.9535 40.8445 18.9832C41.2946 20.0129 41.9534 20.9415 42.7805 21.7125C43.6076 22.4834 44.5857 23.0805 45.6552 23.4672C46.7246 23.854 47.863 24.0224 49.0008 23.9621C50.1242 23.989 51.242 23.7968 52.2896 23.3965C53.3372 22.9962 54.2937 22.3957 55.104 21.6297C55.9144 20.8637 56.5624 19.9474 57.0108 18.9337C57.4591 17.92 57.6989 16.8289 57.7162 15.7236C57.6989 14.6182 57.4591 13.5272 57.0108 12.5135C56.5624 11.4997 55.9144 10.5834 55.104 9.81746C54.2937 9.05148 53.3372 8.45099 52.2896 8.05066C51.242 7.65034 50.1242 7.45812 49.0008 7.4851ZM49.0008 18.9998C48.5714 19.0084 48.145 18.9276 47.7495 18.7629C47.354 18.5981 46.9984 18.3531 46.7058 18.0439C46.4132 17.7346 46.1903 17.3681 46.0516 16.9682C45.913 16.5684 45.8617 16.1443 45.9011 15.7236C45.8654 15.3042 45.9194 14.8822 46.0596 14.4846C46.1998 14.0871 46.4231 13.7228 46.7151 13.4153C47.0071 13.1078 47.3613 12.8638 47.755 12.6992C48.1487 12.5345 48.573 12.4528 49.0008 12.4593C49.4233 12.4649 49.8402 12.555 50.2262 12.7243C50.6121 12.8935 50.959 13.1384 51.2456 13.4438C51.5322 13.7492 51.7526 14.1089 51.8933 14.5008C52.0339 14.8928 52.092 15.3088 52.0639 15.7236C52.0955 16.1397 52.04 16.5577 51.9008 16.9519C51.7615 17.346 51.5415 17.7078 51.2544 18.0149C50.9672 18.3221 50.6191 18.5679 50.2314 18.7373C49.8438 18.9067 49.4249 18.9961 49.0008 18.9998Z" fill="white"/>
<path d="M78.15 7.48512C77.1831 7.46068 76.2208 7.6257 75.3193 7.97057C74.4178 8.31544 73.595 8.83327 72.8989 9.49392C72.3375 8.82948 71.6271 8.30224 70.8235 7.95367C70.0199 7.6051 69.145 7.44471 68.2677 7.48512C66.649 7.43844 65.0753 8.01305 63.8796 9.08737V7.89166H58.8594V23.5914H64.3658V14.6833C64.3323 14.3839 64.3649 14.0809 64.4614 13.7951C64.5579 13.5092 64.716 13.2472 64.9249 13.027C65.1337 12.8067 65.3885 12.6334 65.6717 12.519C65.955 12.4045 66.26 12.3515 66.5659 12.3636C66.8757 12.3489 67.1852 12.3995 67.4735 12.512C67.7618 12.6245 68.0223 12.7964 68.2376 13.0161C68.4528 13.2358 68.6179 13.4982 68.7216 13.7857C68.8253 14.0733 68.8653 14.3793 68.839 14.6833V23.5914H74.3454V14.6833C74.3098 14.3835 74.3409 14.0797 74.4366 13.7929C74.5323 13.5061 74.6903 13.2433 74.8997 13.0226C75.109 12.8019 75.3646 12.6286 75.6488 12.5148C75.9331 12.401 76.239 12.3495 76.5455 12.3636C76.8553 12.3489 77.1648 12.3995 77.4531 12.512C77.7414 12.6245 78.0019 12.7964 78.2172 13.0161C78.4324 13.2358 78.5975 13.4982 78.7012 13.7857C78.8049 14.0733 78.845 14.3793 78.8186 14.6833V23.5914H84.3128V13.9061C84.3128 10.032 82.0276 7.48512 78.15 7.48512Z" fill="white"/>
<path d="M102.255 12.316L100.821 11.2877C99.7387 12.7943 98.8027 14.1216 97.9397 15.2575L95.5815 12.3878C97.3076 10.9171 98.6812 9.39849 98.6812 7.17446C98.6812 4.34062 96.4081 2.3916 93.0897 2.3916C89.7712 2.3916 87.2915 4.4004 87.2915 7.61688C87.2991 9.17082 87.8434 10.6761 88.8353 11.8856C86.5014 13.7748 84.9941 15.3771 84.9941 17.9598C84.9941 21.547 87.8142 23.9384 92.2874 23.9384C94.1803 23.9614 96.0404 23.4511 97.6479 22.4677L98.5839 23.5677H104.88L101.234 19.2273C101.817 18.5457 102.449 17.8163 102.948 17.063C103.223 16.7038 103.423 16.2944 103.536 15.8585C103.649 15.4227 103.672 14.9691 103.606 14.5241C103.539 14.0791 103.383 13.6516 103.147 13.2664C102.911 12.8812 102.599 12.546 102.231 12.2802L102.255 12.316ZM92.9681 6.92336C93.0739 6.91691 93.1799 6.93144 93.2798 6.9661C93.3797 7.00076 93.4715 7.05484 93.5498 7.12512C93.628 7.19541 93.6911 7.28045 93.7353 7.3752C93.7794 7.46995 93.8038 7.57247 93.8068 7.67666V7.79624C93.8068 8.37018 93.4543 8.71694 92.8709 9.18327C92.4566 8.79682 92.1796 8.28959 92.0808 7.73645C92.0806 7.62396 92.1038 7.51262 92.1489 7.40927C92.1941 7.30592 92.2602 7.21274 92.3433 7.13547C92.4265 7.0582 92.5247 6.99846 92.6322 6.95993C92.7396 6.9214 92.8539 6.90489 92.9681 6.91141V6.92336ZM92.5305 19.311C92.2593 19.3443 91.984 19.3218 91.7221 19.2448C91.4602 19.1678 91.2175 19.0379 91.0094 18.8636C90.8013 18.6893 90.6324 18.4742 90.5134 18.2322C90.3944 17.9901 90.3279 17.7263 90.3182 17.4576C90.3757 17.0248 90.5354 16.6112 90.7845 16.25C91.0335 15.8887 91.3651 15.5898 91.7526 15.3771L94.524 18.749C93.945 19.1183 93.2692 19.3136 92.5791 19.311H92.5305Z" fill="white"/>
<path d="M114.263 7.60479C113.482 7.60292 112.711 7.779 112.011 8.11922C111.311 8.45944 110.7 8.95456 110.227 9.56576V7.86785H105.207V23.5915H110.713V16.4172C110.713 13.679 112.087 12.6388 114.518 12.6388H115.831V7.85589C115.327 7.68373 114.796 7.59878 114.263 7.60479Z" fill="white"/>
<path d="M122.346 7.48523C121.245 7.44576 120.149 7.65226 119.141 8.08924C118.132 8.52621 117.238 9.18229 116.524 10.0082L119.125 13.4997C119.775 12.7503 120.685 12.2646 121.678 12.1366C121.979 12.0695 122.291 12.072 122.591 12.144C122.891 12.2159 123.169 12.3553 123.405 12.5512C123.641 12.7471 123.827 12.9941 123.949 13.2728C124.071 13.5515 124.126 13.8543 124.109 14.1573V14.4084H120.754C119.779 14.396 118.808 14.5291 117.873 14.803C116.889 15.0329 116.015 15.5884 115.398 16.3763C114.781 17.1643 114.457 18.137 114.482 19.1315C114.482 21.7382 116.366 23.9981 119.988 23.9981C121.682 24.0385 123.325 23.4297 124.571 22.3001V23.5915H129.591V14.4682C129.615 9.81687 126.698 7.48523 122.346 7.48523ZM124.109 17.8282C124.12 18.1413 124.064 18.4533 123.944 18.7438C123.825 19.0343 123.645 19.2968 123.416 19.5144C123.186 19.732 122.913 19.8998 122.614 20.0068C122.314 20.1139 121.996 20.1579 121.678 20.1359C120.62 20.1359 120.049 19.6576 120.049 18.9402C120.049 18.2228 120.596 17.7445 121.52 17.7445H124.109V17.8282Z" fill="white"/>
<path d="M140.702 7.48488C139.037 7.44957 137.423 8.04458 136.192 9.14693V7.86751H131.172V23.5912H136.727V14.6831C136.687 14.1076 136.881 13.5399 137.266 13.105C137.651 12.67 138.196 12.4033 138.781 12.3634H139.036C139.33 12.3506 139.624 12.3948 139.9 12.4937C140.176 12.5926 140.43 12.7441 140.647 12.9395C140.864 13.135 141.039 13.3706 141.163 13.6328C141.287 13.8951 141.358 14.1789 141.37 14.4679V20.1953C141.37 21.096 141.734 21.9597 142.381 22.5966C143.029 23.2334 143.907 23.5912 144.822 23.5912H146.865V13.9059C146.804 10.0318 144.433 7.48488 140.702 7.48488Z" fill="white"/>
<path d="M151.666 16.5487L153.854 19.7413V23.5915H148.359V0H153.854V11.718L151.666 14.9106L151.107 15.7237L151.666 16.5487Z" fill="white"/>
<path d="M158.911 15.7235L164.223 23.5913H160.127C159.529 23.5922 158.941 23.4488 158.413 23.1735C157.885 22.8983 157.434 22.4998 157.1 22.013L153.854 17.2899L153.356 16.5486L152.797 15.7235L153.356 14.9104L153.854 14.1691L157.1 9.44602C157.434 8.95921 157.885 8.56069 158.413 8.28547C158.941 8.01026 159.529 7.86679 160.127 7.86768H164.223L158.911 15.7235Z" fill="white"/>
</svg>
